<?xml version="1.0" standalone="no"?>
<!DOCTYPE svg PUBLIC "-//W3C//DTD SVG 20010904//EN"
 "http://www.w3.org/TR/2001/REC-SVG-20010904/DTD/svg10.dtd">
<svg version="1.0" xmlns="http://www.w3.org/2000/svg"
 width="640.000000pt" height="640.000000pt" viewBox="0 0 640.000000 640.000000"
 preserveAspectRatio="xMidYMid meet">

<g transform="translate(0.000000,640.000000) scale(0.100000,-0.100000)"
fill="#000000" stroke="none">
<path d="M0 3200 l0 -3200 3200 0 3200 0 0 3200 0 3200 -3200 0 -3200 0 0
-3200z m4032 1879 c141 -29 279 -138 342 -268 71 -147 69 -288 -3 -436 -147
-298 -544 -367 -784 -137 -196 188 -202 495 -14 698 116 125 288 179 459 143z
m-1460 -1390 c141 -29 279 -138 342 -268 71 -147 69 -288 -3 -436 -147 -298
-544 -367 -784 -137 -196 188 -202 495 -14 698 116 125 288 179 459 143z
m1470 -21 c144 -38 271 -139 332 -267 71 -147 69 -288 -3 -436 -147 -298 -544
-367 -784 -137 -196 188 -202 495 -14 698 65 71 144 116 249 144 80 21 133 20
220 -2z m-1480 -1369 c141 -29 279 -138 342 -268 71 -147 69 -288 -3 -436
-147 -298 -544 -367 -784 -137 -196 188 -202 495 -14 698 116 125 288 179 459
143z"/>
</g>
</svg>
