<?xml version="1.0" standalone="no"?>
<!DOCTYPE svg PUBLIC "-//W3C//DTD SVG 20010904//EN"
 "http://www.w3.org/TR/2001/REC-SVG-20010904/DTD/svg10.dtd">
<svg version="1.0" xmlns="http://www.w3.org/2000/svg"
 width="512.000000pt" height="512.000000pt" viewBox="0 0 512.000000 512.000000"
 preserveAspectRatio="xMidYMid meet">

<g transform="translate(0.000000,512.000000) scale(0.100000,-0.100000)"
fill="#000000" stroke="none">
<path d="M3028 4051 c-75 -24 -115 -50 -172 -111 -147 -157 -138 -404 20 -550
231 -213 598 -89 655 221 52 282 -229 527 -503 440z"/>
<path d="M1870 2941 c-104 -34 -201 -115 -245 -204 -97 -199 -21 -426 179
-530 58 -30 67 -32 171 -32 101 0 115 2 170 29 80 40 149 111 188 194 29 61
32 76 32 162 0 86 -3 101 -32 162 -39 83 -108 155 -188 193 -51 25 -73 30
-155 32 -52 1 -106 -1 -120 -6z"/>
<path d="M3015 2933 c-105 -38 -181 -110 -233 -220 -23 -50 -27 -71 -27 -153
0 -86 3 -101 32 -162 39 -83 108 -154 188 -194 55 -27 69 -29 170 -29 104 0
113 2 171 32 117 61 192 162 216 291 30 163 -59 334 -216 414 -53 28 -73 32
-156 35 -73 3 -107 -1 -145 -14z"/>
<path d="M1885 1827 c-202 -52 -334 -252 -296 -448 50 -253 296 -390 536 -299
84 32 183 131 215 215 77 204 -7 414 -203 506 -75 34 -177 45 -252 26z"/>
</g>
</svg>
